<svg width="227" height="37" viewBox="0 0 227 37" fill="none" xmlns="http://www.w3.org/2000/svg">
<path d="M0.992188 14.2891C0.992188 10.3438 2.28125 7.04297 4.85938 4.38672C7.4375 1.73047 10.7969 0.402344 14.9375 0.402344C19.1172 0.402344 22.5221 1.73047 25.1523 4.38672C27.7826 7.04297 29.0977 10.3698 29.0977 14.3672C29.0977 18.4427 27.7565 21.8086 25.0742 24.4648C22.4049 27.1081 19.0065 28.4297 14.8789 28.4297C12.2487 28.4297 9.82682 27.8047 7.61328 26.5547C5.41276 25.2917 3.75911 23.5404 2.65234 21.3008C1.54557 19.0482 0.992188 16.7109 0.992188 14.2891ZM5.46484 14.3086C5.46484 17.2904 6.33724 19.7904 8.08203 21.8086C9.82682 23.8268 12.1185 24.8359 14.957 24.8359C17.7695 24.8359 20.0807 23.8073 21.8906 21.75C23.7005 19.6797 24.6055 17.2122 24.6055 14.3477C24.6055 11.457 23.681 9.01562 21.832 7.02344C19.9961 5.01823 17.6849 4.01562 14.8984 4.01562C12.125 4.01562 9.85938 4.9987 8.10156 6.96484C6.34375 8.93099 5.46484 11.3789 5.46484 14.3086Z" fill="#1E1E1E"/>
<path d="M35.7578 24.6992V12.3945H31.9492V9.09375H38.7266V13.3516C39.1432 12.2448 39.7227 11.3268 40.4648 10.5977C41.207 9.86849 41.9883 9.38672 42.8086 9.15234C43.6419 8.91797 44.7747 8.80078 46.207 8.80078H47.1836V12.5508H46.4414C44.5534 12.5508 43.1406 12.7396 42.2031 13.1172C41.2786 13.4948 40.5885 14.1849 40.1328 15.1875C39.6901 16.1771 39.4688 17.9609 39.4688 20.5391V24.6992H43.5898V28H31.9492V24.6992H35.7578Z" fill="#1E1E1E"/>
<path d="M52.2812 2.66797C52.2812 2.06901 52.4896 1.54818 52.9062 1.10547C53.3359 0.66276 53.8763 0.441406 54.5273 0.441406C55.1393 0.441406 55.6667 0.65625 56.1094 1.08594C56.5521 1.51562 56.7734 2.04297 56.7734 2.66797C56.7734 3.29297 56.5521 3.82682 56.1094 4.26953C55.6667 4.69922 55.1393 4.91406 54.5273 4.91406C53.9023 4.91406 53.3685 4.69271 52.9258 4.25C52.4961 3.80729 52.2812 3.27995 52.2812 2.66797ZM52.8086 24.6992V12.3945H49.8594V9.09375H56.5195V24.6992H59.4297V28H49.8594V24.6992H52.8086Z" fill="#1E1E1E"/>
<path d="M84.8008 9.09375V12.3945H81.4023V26.4766C81.4023 28.3776 81.3047 29.7839 81.1094 30.6953C80.9141 31.6198 80.4388 32.5573 79.6836 33.5078C78.9414 34.4714 77.8216 35.2786 76.3242 35.9297C74.8268 36.5807 73.1536 36.9062 71.3047 36.9062C68.5182 36.9062 66.0312 36.0664 63.8438 34.3867L66.2656 31.6914C67.9062 32.9674 69.6901 33.6055 71.6172 33.6055C72.6849 33.6055 73.6745 33.3971 74.5859 32.9805C75.4974 32.5768 76.1745 32.082 76.6172 31.4961C77.0729 30.9102 77.3659 30.3503 77.4961 29.8164C77.6263 29.2956 77.6914 28.4102 77.6914 27.1602V25.4414C77.1055 26.1836 76.1875 26.8867 74.9375 27.5508C73.6875 28.2148 72.3203 28.5469 70.8359 28.5469C68.1276 28.5469 65.9206 27.6094 64.2148 25.7344C62.5091 23.8594 61.6562 21.5547 61.6562 18.8203C61.6562 15.8255 62.5938 13.4102 64.4688 11.5742C66.3568 9.72526 68.5378 8.80078 71.0117 8.80078C73.5117 8.80078 75.7383 9.79688 77.6914 11.7891V9.09375H84.8008ZM65.6016 18.7422C65.6016 20.6562 66.1549 22.2188 67.2617 23.4297C68.3815 24.6406 69.8073 25.2461 71.5391 25.2461C73.2318 25.2461 74.6901 24.6406 75.9141 23.4297C77.138 22.2057 77.75 20.6367 77.75 18.7227C77.75 16.7826 77.138 15.2266 75.9141 14.0547C74.6901 12.8698 73.2708 12.2773 71.6562 12.2773C70.0417 12.2773 68.6289 12.8633 67.418 14.0352C66.207 15.194 65.6016 16.763 65.6016 18.7422Z" fill="#1E1E1E"/>
<path d="M105.348 24.6992V28H98.8633V25.6953C97.0664 27.4401 95.0612 28.3125 92.8477 28.3125C91.1289 28.3125 89.6315 27.7526 88.3555 26.6328C87.0924 25.513 86.4609 24.0807 86.4609 22.3359C86.4609 20.5781 87.1315 19.1198 88.4727 17.9609C89.8268 16.8021 91.4544 16.2227 93.3555 16.2227C95.1263 16.2227 96.8385 16.7565 98.4922 17.8242V15.9492C98.4922 14.9857 98.401 14.2435 98.2188 13.7227C98.0365 13.2018 97.6068 12.7331 96.9297 12.3164C96.2656 11.8997 95.3932 11.6914 94.3125 11.6914C92.4505 11.6914 91.1029 12.4336 90.2695 13.918L86.7148 12.9805C88.2904 10.0378 91.0117 8.56641 94.8789 8.56641C96.2982 8.56641 97.5221 8.76172 98.5508 9.15234C99.5924 9.52995 100.367 10.0247 100.875 10.6367C101.383 11.2357 101.721 11.8867 101.891 12.5898C102.073 13.293 102.164 14.4128 102.164 15.9492V24.6992H105.348ZM98.4922 20.9688C96.8906 19.7188 95.2695 19.0938 93.6289 19.0938C92.6003 19.0938 91.7409 19.3932 91.0508 19.9922C90.3607 20.5911 90.0156 21.3659 90.0156 22.3164C90.0156 23.2018 90.3151 23.944 90.9141 24.543C91.526 25.1419 92.3529 25.4414 93.3945 25.4414C95.1914 25.4414 96.8906 24.6862 98.4922 23.1758V20.9688Z" fill="#1E1E1E"/>
<path d="M110.309 24.6992V12.3945H107.164V9.09375H114.02V11.4766C116.259 9.69271 118.453 8.80078 120.602 8.80078C122.763 8.80078 124.254 9.78385 125.074 11.75C127.535 9.78385 129.827 8.80078 131.949 8.80078C133.173 8.80078 134.176 9.07422 134.957 9.62109C135.751 10.1549 136.285 10.8385 136.559 11.6719C136.832 12.4922 136.969 13.7096 136.969 15.3242V24.6992H140.27V28H133.258V15.9883C133.258 14.8945 133.206 14.1263 133.102 13.6836C133.01 13.2279 132.763 12.8568 132.359 12.5703C131.969 12.2708 131.493 12.1211 130.934 12.1211C129.345 12.1211 127.542 12.9349 125.523 14.5625V24.6992H128.766V28H121.812V15.6367C121.812 14.3997 121.63 13.5078 121.266 12.9609C120.914 12.401 120.309 12.1211 119.449 12.1211C118.043 12.1211 116.233 12.9349 114.02 14.5625V24.6992H117.34V28H106.93V24.6992H110.309Z" fill="#1E1E1E"/>
<path d="M144.195 2.66797C144.195 2.06901 144.404 1.54818 144.82 1.10547C145.25 0.66276 145.79 0.441406 146.441 0.441406C147.053 0.441406 147.581 0.65625 148.023 1.08594C148.466 1.51562 148.688 2.04297 148.688 2.66797C148.688 3.29297 148.466 3.82682 148.023 4.26953C147.581 4.69922 147.053 4.91406 146.441 4.91406C145.816 4.91406 145.283 4.69271 144.84 4.25C144.41 3.80729 144.195 3.27995 144.195 2.66797ZM144.723 24.6992V12.3945H141.773V9.09375H148.434V24.6992H151.344V28H141.773V24.6992H144.723Z" fill="#1E1E1E"/>
<path d="M166.363 24.6016V4.23047H163.414V0.832031H173.414V4.23047H170.465V24.6016H173.414V28H163.414V24.6016H166.363Z" fill="#1E1E1E"/>
<path d="M182.809 9.09375V11.3789C185.191 9.66016 187.366 8.80078 189.332 8.80078C190.556 8.80078 191.565 9.09375 192.359 9.67969C193.167 10.2526 193.694 10.9622 193.941 11.8086C194.189 12.6419 194.312 13.8659 194.312 15.4805V24.6992H197.496V28H190.602V15.6367C190.602 14.2044 190.387 13.2734 189.957 12.8438C189.527 12.401 189 12.1797 188.375 12.1797C186.734 12.1797 184.879 12.9805 182.809 14.582V24.6992H186.07V28H175.777V24.6992H179.098V12.3945H175.777V9.09375H182.809Z" fill="#1E1E1E"/>
<path d="M216.969 9.09375V16.2422H213.648C213.479 14.875 212.919 13.8268 211.969 13.0977C211.031 12.3685 209.938 12.0039 208.688 12.0039C207.021 12.0039 205.667 12.5964 204.625 13.7812C203.583 14.9531 203.062 16.4961 203.062 18.4102C203.062 20.194 203.557 21.7695 204.547 23.1367C205.536 24.4909 206.969 25.168 208.844 25.168C211.448 25.168 213.336 23.931 214.508 21.457L217.574 22.9023C215.882 26.6654 212.919 28.5469 208.688 28.5469C205.693 28.5469 203.336 27.5247 201.617 25.4805C199.898 23.4362 199.039 21.0794 199.039 18.4102C199.039 15.5586 199.977 13.2083 201.852 11.3594C203.727 9.4974 205.888 8.56641 208.336 8.56641C210.432 8.56641 212.203 9.1849 213.648 10.4219V9.09375H216.969Z" fill="#1E1E1E"/>
<path d="M221.93 28V23.1953H226.734V28H221.93Z" fill="#1E1E1E"/>
</svg>
