<svg xmlns="http://www.w3.org/2000/svg" width="40" height="40" fill="none">
  <path fill="#bbb" fill-rule="evenodd" d="M21.326.15c-3.51.542-6.556 2.082-9.033 4.566-3.128 3.137-4.747 7-4.75 11.337-.002 2.72.552 4.983 1.835 7.501.296.582.54 1.118.54 1.19 0 .073-1.982 2.121-4.403 4.552C3.093 31.726.999 33.883.86 34.088c-.667.987-.908 1.778-.854 2.803.047.893.286 1.4.994 2.108.708.707 1.215.947 2.108.994 1.025.054 1.815-.187 2.802-.854.205-.138 2.361-2.233 4.792-4.655 2.43-2.421 4.478-4.403 4.55-4.403.073 0 .608.243 1.19.54 2.518 1.283 4.782 1.837 7.5 1.835 4.338-.004 8.2-1.622 11.336-4.75C38.372 24.62 39.997 20.67 40 16.231c.003-4.44-1.63-8.418-4.724-11.513-2.536-2.535-5.608-4.057-9.284-4.6-1.15-.17-3.464-.154-4.666.032Zm4.102 4.254c2.656.415 4.695 1.407 6.593 3.209 3.888 3.69 4.807 9.58 2.235 14.308-1.317 2.42-3.579 4.419-6.147 5.43-2.113.834-4.88 1.027-7.057.493-2.232-.547-4.111-1.599-5.705-3.193-1.846-1.846-3.002-4.148-3.396-6.761-.125-.829-.11-2.556.03-3.48.775-5.106 4.863-9.198 9.99-10 .874-.136 2.6-.14 3.457-.006Zm-2.462 2.163c-3.547.564-6.576 2.813-8.038 5.967-.45.97-.404 1.585.162 2.199.383.415.963.624 1.491.536.662-.11 1.03-.426 1.435-1.232.924-1.835 2.24-3.027 4.12-3.73 1.436-.538 3.374-.519 4.879.048 1.43.538 2.625-.141 2.626-1.491 0-.506-.14-.862-.486-1.231-.327-.35-1.62-.796-3.023-1.042-.685-.121-2.472-.135-3.166-.024Z" clip-rule="evenodd"/>
  <path fill="#bbb" fill-rule="evenodd" d="M21.326.15c-3.51.542-6.556 2.082-9.033 4.566-3.128 3.137-4.747 7-4.75 11.337-.002 2.72.552 4.983 1.835 7.501.296.582.54 1.118.54 1.19 0 .073-1.982 2.121-4.403 4.552C3.093 31.726.999 33.883.86 34.088c-.667.987-.908 1.778-.854 2.803.047.893.286 1.4.994 2.108.708.707 1.215.947 2.108.994 1.025.054 1.815-.187 2.802-.854.205-.138 2.361-2.233 4.792-4.655 2.43-2.421 4.478-4.403 4.55-4.403.073 0 .608.243 1.19.54 2.518 1.283 4.782 1.837 7.5 1.835 4.338-.004 8.2-1.622 11.336-4.75C38.372 24.62 39.997 20.67 40 16.231c.003-4.44-1.63-8.418-4.724-11.513-2.536-2.535-5.608-4.057-9.284-4.6-1.15-.17-3.464-.154-4.666.032Zm4.102 4.254c2.656.415 4.695 1.407 6.593 3.209 3.888 3.69 4.807 9.58 2.235 14.308-1.317 2.42-3.579 4.419-6.147 5.43-2.113.834-4.88 1.027-7.057.493-2.232-.547-4.111-1.599-5.705-3.193-1.846-1.846-3.002-4.148-3.396-6.761-.125-.829-.11-2.556.03-3.48.775-5.106 4.863-9.198 9.99-10 .874-.136 2.6-.14 3.457-.006Zm-2.462 2.163c-3.547.564-6.576 2.813-8.038 5.967-.45.97-.404 1.585.162 2.199.383.415.963.624 1.491.536.662-.11 1.03-.426 1.435-1.232.924-1.835 2.24-3.027 4.12-3.73 1.436-.538 3.374-.519 4.879.048 1.43.538 2.625-.141 2.626-1.491 0-.506-.14-.862-.486-1.231-.327-.35-1.62-.796-3.023-1.042-.685-.121-2.472-.135-3.166-.024Z" clip-rule="evenodd"/>
  <path fill="#bbb" fill-rule="evenodd" d="M21.326.15c-3.51.542-6.556 2.082-9.033 4.566-3.128 3.137-4.747 7-4.75 11.337-.002 2.72.552 4.983 1.835 7.501.296.582.54 1.118.54 1.19 0 .073-1.982 2.121-4.403 4.552C3.093 31.726.999 33.883.86 34.088c-.667.987-.908 1.778-.854 2.803.047.893.286 1.4.994 2.108.708.707 1.215.947 2.108.994 1.025.054 1.815-.187 2.802-.854.205-.138 2.361-2.233 4.792-4.655 2.43-2.421 4.478-4.403 4.55-4.403.073 0 .608.243 1.19.54 2.518 1.283 4.782 1.837 7.5 1.835 4.338-.004 8.2-1.622 11.336-4.75C38.372 24.62 39.997 20.67 40 16.231c.003-4.44-1.63-8.418-4.724-11.513-2.536-2.535-5.608-4.057-9.284-4.6-1.15-.17-3.464-.154-4.666.032Zm4.102 4.254c2.656.415 4.695 1.407 6.593 3.209 3.888 3.69 4.807 9.58 2.235 14.308-1.317 2.42-3.579 4.419-6.147 5.43-2.113.834-4.88 1.027-7.057.493-2.232-.547-4.111-1.599-5.705-3.193-1.846-1.846-3.002-4.148-3.396-6.761-.125-.829-.11-2.556.03-3.48.775-5.106 4.863-9.198 9.99-10 .874-.136 2.6-.14 3.457-.006Zm-2.462 2.163c-3.547.564-6.576 2.813-8.038 5.967-.45.97-.404 1.585.162 2.199.383.415.963.624 1.491.536.662-.11 1.03-.426 1.435-1.232.924-1.835 2.24-3.027 4.12-3.73 1.436-.538 3.374-.519 4.879.048 1.43.538 2.625-.141 2.626-1.491 0-.506-.14-.862-.486-1.231-.327-.35-1.62-.796-3.023-1.042-.685-.121-2.472-.135-3.166-.024Z" clip-rule="evenodd"/>
  <path fill="#bbb" fill-rule="evenodd" d="M21.326.15c-3.51.542-6.556 2.082-9.033 4.566-3.128 3.137-4.747 7-4.75 11.337-.002 2.72.552 4.983 1.835 7.501.296.582.54 1.118.54 1.19 0 .073-1.982 2.121-4.403 4.552C3.093 31.726.999 33.883.86 34.088c-.667.987-.908 1.778-.854 2.803.047.893.286 1.4.994 2.108.708.707 1.215.947 2.108.994 1.025.054 1.815-.187 2.802-.854.205-.138 2.361-2.233 4.792-4.655 2.43-2.421 4.478-4.403 4.55-4.403.073 0 .608.243 1.19.54 2.518 1.283 4.782 1.837 7.5 1.835 4.338-.004 8.2-1.622 11.336-4.75C38.372 24.62 39.997 20.67 40 16.231c.003-4.44-1.63-8.418-4.724-11.513-2.536-2.535-5.608-4.057-9.284-4.6-1.15-.17-3.464-.154-4.666.032Zm4.102 4.254c2.656.415 4.695 1.407 6.593 3.209 3.888 3.69 4.807 9.58 2.235 14.308-1.317 2.42-3.579 4.419-6.147 5.43-2.113.834-4.88 1.027-7.057.493-2.232-.547-4.111-1.599-5.705-3.193-1.846-1.846-3.002-4.148-3.396-6.761-.125-.829-.11-2.556.03-3.48.775-5.106 4.863-9.198 9.99-10 .874-.136 2.6-.14 3.457-.006Zm-2.462 2.163c-3.547.564-6.576 2.813-8.038 5.967-.45.97-.404 1.585.162 2.199.383.415.963.624 1.491.536.662-.11 1.03-.426 1.435-1.232.924-1.835 2.24-3.027 4.12-3.73 1.436-.538 3.374-.519 4.879.048 1.43.538 2.625-.141 2.626-1.491 0-.506-.14-.862-.486-1.231-.327-.35-1.62-.796-3.023-1.042-.685-.121-2.472-.135-3.166-.024Z" clip-rule="evenodd"/>
  <path fill="#bbb" fill-rule="evenodd" d="M21.326.15c-3.51.542-6.556 2.082-9.033 4.566-3.128 3.137-4.747 7-4.75 11.337-.002 2.72.552 4.983 1.835 7.501.296.582.54 1.118.54 1.19 0 .073-1.982 2.121-4.403 4.552C3.093 31.726.999 33.883.86 34.088c-.667.987-.908 1.778-.854 2.803.047.893.286 1.4.994 2.108.708.707 1.215.947 2.108.994 1.025.054 1.815-.187 2.802-.854.205-.138 2.361-2.233 4.792-4.655 2.43-2.421 4.478-4.403 4.55-4.403.073 0 .608.243 1.19.54 2.518 1.283 4.782 1.837 7.5 1.835 4.338-.004 8.2-1.622 11.336-4.75C38.372 24.62 39.997 20.67 40 16.231c.003-4.44-1.63-8.418-4.724-11.513-2.536-2.535-5.608-4.057-9.284-4.6-1.15-.17-3.464-.154-4.666.032Zm4.102 4.254c2.656.415 4.695 1.407 6.593 3.209 3.888 3.69 4.807 9.58 2.235 14.308-1.317 2.42-3.579 4.419-6.147 5.43-2.113.834-4.88 1.027-7.057.493-2.232-.547-4.111-1.599-5.705-3.193-1.846-1.846-3.002-4.148-3.396-6.761-.125-.829-.11-2.556.03-3.48.775-5.106 4.863-9.198 9.99-10 .874-.136 2.6-.14 3.457-.006Zm-2.462 2.163c-3.547.564-6.576 2.813-8.038 5.967-.45.97-.404 1.585.162 2.199.383.415.963.624 1.491.536.662-.11 1.03-.426 1.435-1.232.924-1.835 2.24-3.027 4.12-3.73 1.436-.538 3.374-.519 4.879.048 1.43.538 2.625-.141 2.626-1.491 0-.506-.14-.862-.486-1.231-.327-.35-1.62-.796-3.023-1.042-.685-.121-2.472-.135-3.166-.024Z" clip-rule="evenodd"/>
  <path fill="#bbb" fill-rule="evenodd" d="M21.326.15c-3.51.542-6.556 2.082-9.033 4.566-3.128 3.137-4.747 7-4.75 11.337-.002 2.72.552 4.983 1.835 7.501.296.582.54 1.118.54 1.19 0 .073-1.982 2.121-4.403 4.552C3.093 31.726.999 33.883.86 34.088c-.667.987-.908 1.778-.854 2.803.047.893.286 1.4.994 2.108.708.707 1.215.947 2.108.994 1.025.054 1.815-.187 2.802-.854.205-.138 2.361-2.233 4.792-4.655 2.43-2.421 4.478-4.403 4.55-4.403.073 0 .608.243 1.19.54 2.518 1.283 4.782 1.837 7.5 1.835 4.338-.004 8.2-1.622 11.336-4.75C38.372 24.62 39.997 20.67 40 16.231c.003-4.44-1.63-8.418-4.724-11.513-2.536-2.535-5.608-4.057-9.284-4.6-1.15-.17-3.464-.154-4.666.032Zm4.102 4.254c2.656.415 4.695 1.407 6.593 3.209 3.888 3.69 4.807 9.58 2.235 14.308-1.317 2.42-3.579 4.419-6.147 5.43-2.113.834-4.88 1.027-7.057.493-2.232-.547-4.111-1.599-5.705-3.193-1.846-1.846-3.002-4.148-3.396-6.761-.125-.829-.11-2.556.03-3.48.775-5.106 4.863-9.198 9.99-10 .874-.136 2.6-.14 3.457-.006Zm-2.462 2.163c-3.547.564-6.576 2.813-8.038 5.967-.45.97-.404 1.585.162 2.199.383.415.963.624 1.491.536.662-.11 1.03-.426 1.435-1.232.924-1.835 2.24-3.027 4.12-3.73 1.436-.538 3.374-.519 4.879.048 1.43.538 2.625-.141 2.626-1.491 0-.506-.14-.862-.486-1.231-.327-.35-1.62-.796-3.023-1.042-.685-.121-2.472-.135-3.166-.024Z" clip-rule="evenodd"/>
  <path fill="#bbb" fill-rule="evenodd" d="M21.326.15c-3.51.542-6.556 2.082-9.033 4.566-3.128 3.137-4.747 7-4.75 11.337-.002 2.72.552 4.983 1.835 7.501.296.582.54 1.118.54 1.19 0 .073-1.982 2.121-4.403 4.552C3.093 31.726.999 33.883.86 34.088c-.667.987-.908 1.778-.854 2.803.047.893.286 1.4.994 2.108.708.707 1.215.947 2.108.994 1.025.054 1.815-.187 2.802-.854.205-.138 2.361-2.233 4.792-4.655 2.43-2.421 4.478-4.403 4.55-4.403.073 0 .608.243 1.19.54 2.518 1.283 4.782 1.837 7.5 1.835 4.338-.004 8.2-1.622 11.336-4.75C38.372 24.62 39.997 20.67 40 16.231c.003-4.44-1.63-8.418-4.724-11.513-2.536-2.535-5.608-4.057-9.284-4.6-1.15-.17-3.464-.154-4.666.032Zm4.102 4.254c2.656.415 4.695 1.407 6.593 3.209 3.888 3.69 4.807 9.58 2.235 14.308-1.317 2.42-3.579 4.419-6.147 5.43-2.113.834-4.88 1.027-7.057.493-2.232-.547-4.111-1.599-5.705-3.193-1.846-1.846-3.002-4.148-3.396-6.761-.125-.829-.11-2.556.03-3.48.775-5.106 4.863-9.198 9.99-10 .874-.136 2.6-.14 3.457-.006Zm-2.462 2.163c-3.547.564-6.576 2.813-8.038 5.967-.45.97-.404 1.585.162 2.199.383.415.963.624 1.491.536.662-.11 1.03-.426 1.435-1.232.924-1.835 2.24-3.027 4.12-3.73 1.436-.538 3.374-.519 4.879.048 1.43.538 2.625-.141 2.626-1.491 0-.506-.14-.862-.486-1.231-.327-.35-1.62-.796-3.023-1.042-.685-.121-2.472-.135-3.166-.024Z" clip-rule="evenodd"/>
  <path fill="#bbb" fill-rule="evenodd" d="M21.326.15c-3.51.542-6.556 2.082-9.033 4.566-3.128 3.137-4.747 7-4.75 11.337-.002 2.72.552 4.983 1.835 7.501.296.582.54 1.118.54 1.19 0 .073-1.982 2.121-4.403 4.552C3.093 31.726.999 33.883.86 34.088c-.667.987-.908 1.778-.854 2.803.047.893.286 1.4.994 2.108.708.707 1.215.947 2.108.994 1.025.054 1.815-.187 2.802-.854.205-.138 2.361-2.233 4.792-4.655 2.43-2.421 4.478-4.403 4.55-4.403.073 0 .608.243 1.19.54 2.518 1.283 4.782 1.837 7.5 1.835 4.338-.004 8.2-1.622 11.336-4.75C38.372 24.62 39.997 20.67 40 16.231c.003-4.44-1.63-8.418-4.724-11.513-2.536-2.535-5.608-4.057-9.284-4.6-1.15-.17-3.464-.154-4.666.032Zm4.102 4.254c2.656.415 4.695 1.407 6.593 3.209 3.888 3.69 4.807 9.58 2.235 14.308-1.317 2.42-3.579 4.419-6.147 5.43-2.113.834-4.88 1.027-7.057.493-2.232-.547-4.111-1.599-5.705-3.193-1.846-1.846-3.002-4.148-3.396-6.761-.125-.829-.11-2.556.03-3.48.775-5.106 4.863-9.198 9.99-10 .874-.136 2.6-.14 3.457-.006Zm-2.462 2.163c-3.547.564-6.576 2.813-8.038 5.967-.45.97-.404 1.585.162 2.199.383.415.963.624 1.491.536.662-.11 1.03-.426 1.435-1.232.924-1.835 2.24-3.027 4.12-3.73 1.436-.538 3.374-.519 4.879.048 1.43.538 2.625-.141 2.626-1.491 0-.506-.14-.862-.486-1.231-.327-.35-1.62-.796-3.023-1.042-.685-.121-2.472-.135-3.166-.024Z" clip-rule="evenodd"/>
</svg>
